<?xml version="1.0" encoding="UTF-8"?>
<svg width="124px" height="36px" viewBox="0 0 124 36" version="1.1" xmlns="http://www.w3.org/2000/svg" xmlns:xlink="http://www.w3.org/1999/xlink">
    <!-- Generator: Sketch 60.1 (88133) - https://sketch.com -->
    <title>ko-logo</title>
    <desc>Created with Sketch.</desc>
    <g id="17_Insights" stroke="none" stroke-width="1" fill="none" fill-rule="evenodd">
        <g id="r" transform="translate(-216.000000, -210.000000)" fill="#5653C3">
            <g id="Group" transform="translate(46.000000, 32.000000)">
                <g id="ko-logo" transform="translate(170.000000, 178.000000)">
                    <path d="M22.639,31.135 L22.589,31.135 L14.011,22.562 L14.011,27.847 C11.954,27.138 10.13,25.889 9.341,24.214 L9.341,7.64 C6.37,10.12 4.44,13.856 4.44,18 C4.44,25.506 10.557,31.555 17.985,31.555 C18.421,31.555 18.785,31.482 19.077,31.482 L22.572,35.344 C21.116,35.781 19.514,36 17.912,36 C8.01,36 0,27.984 0,18.073 C0,9.547 6.074,2.211 14.01,0.39 L14.01,13.33 C14.01,13.33 18.005,9.28 19.937,7.302 C22.1,7.747 23.23,8.33 24.391,9.442 C21.606,12.257 15.991,17.946 15.991,17.946 L26.631,28.579 C29.8041563,26.0002003 31.6424498,22.1258922 31.633,18.037 C31.633,10.516 25.519,4.455 18.094,4.455 C17.658,4.455 17.294,4.528 16.93,4.528 L16.93,0.073 C17.294,0 17.73,0 18.094,0 C27.994,0 36,8.033 36,17.964 C36,25.121 31.778,31.254 25.81,34.249 L22.639,31.135 L22.639,31.135 Z M52.104,27.665 C52.104,28.852 51.894,29.892 51.475,30.786 C51.055,31.681 50.455,32.37 49.675,32.856 C48.893,33.342 47.998,33.585 46.988,33.585 C45.988,33.585 45.098,33.345 44.313,32.865 C43.53,32.385 42.923,31.698 42.492,30.807 C42.062,29.916 41.843,28.89 41.838,27.731 L41.838,27.135 C41.838,25.948 42.052,24.904 42.479,24.001 C42.907,23.099 43.512,22.406 44.293,21.923 C45.073,21.44 45.967,21.199 46.971,21.199 C47.976,21.199 48.868,21.44 49.649,21.923 C50.431,22.406 51.035,23.099 51.463,24.001 C51.89,24.904 52.104,25.946 52.104,27.127 L52.104,27.665 L52.104,27.665 Z M49.587,27.119 C49.587,25.855 49.361,24.894 48.908,24.237 C48.456,23.58 47.81,23.252 46.971,23.252 C46.138,23.252 45.495,23.576 45.042,24.225 C44.589,24.873 44.36,25.825 44.355,27.077 L44.355,27.665 C44.355,28.895 44.581,29.851 45.034,30.53 C45.486,31.209 46.138,31.548 46.988,31.548 C47.821,31.548 48.461,31.221 48.908,30.567 C49.356,29.913 49.582,28.959 49.588,27.707 L49.588,27.119 L49.587,27.119 Z M54.017,33.419 L54.017,26.216 L52.684,26.216 L52.684,24.461 L54.017,24.461 L54.017,23.699 C54.017,22.695 54.305,21.915 54.882,21.36 C55.459,20.805 56.266,20.528 57.304,20.528 C57.634,20.528 58.041,20.583 58.521,20.694 L58.496,22.548 C58.2568568,22.4941272 58.0120908,22.4692812 57.767,22.474 C56.867,22.474 56.417,22.896 56.417,23.741 L56.417,24.461 L58.197,24.461 L58.197,26.216 L56.417,26.216 L56.417,33.419 L54.017,33.419 L54.017,33.419 Z M60.049,33.419 L60.049,26.216 L58.716,26.216 L58.716,24.461 L60.049,24.461 L60.049,23.699 C60.049,22.695 60.338,21.915 60.914,21.36 C61.491,20.805 62.298,20.528 63.336,20.528 C63.667,20.528 64.073,20.583 64.553,20.694 L64.528,22.548 C64.2891824,22.4942071 64.044757,22.4693617 63.8,22.474 C62.9,22.474 62.45,22.896 62.45,23.741 L62.45,24.461 L64.23,24.461 L64.23,26.216 L62.45,26.216 L62.45,33.419 L60.05,33.419 L60.049,33.419 Z M67.583,33.419 L65.182,33.419 L65.182,24.461 L67.582,24.461 L67.582,33.419 L67.583,33.419 Z M66.454,23.546 C65.7553598,23.546 65.189,22.9796402 65.189,22.281 C65.189,21.5823598 65.7553598,21.016 66.454,21.016 C67.1526402,21.016 67.719,21.5823598 67.719,22.281 C67.719,22.9796402 67.1526402,23.546 66.454,23.546 L66.454,23.546 Z M72.898,31.656 C73.34,31.656 73.698,31.534 73.974,31.291 C74.25,31.049 74.394,30.726 74.404,30.323 L76.649,30.323 C76.647708,30.9153023 76.4751039,31.4945853 76.152,31.991 C75.8233761,32.4988525 75.3606362,32.9058698 74.815,33.167 C74.2305633,33.4499864 73.5882935,33.5930934 72.939,33.585 C71.659,33.585 70.649,33.178 69.909,32.364 C69.169,31.549 68.799,30.424 68.799,28.99 L68.799,28.832 C68.799,27.452 69.167,26.352 69.901,25.529 C70.635,24.706 71.642,24.295 72.923,24.295 C74.043,24.295 74.942,24.614 75.618,25.252 C76.294,25.889 76.638,26.738 76.648,27.797 L74.405,27.797 C74.394,27.334 74.25,26.957 73.975,26.667 C73.698,26.377 73.334,26.233 72.881,26.233 C72.324,26.233 71.903,26.436 71.619,26.841 C71.335,27.247 71.192,27.905 71.192,28.816 L71.192,29.064 C71.192,29.986 71.333,30.648 71.615,31.051 C71.896,31.454 72.324,31.656 72.898,31.656 L72.898,31.656 Z M82.138,33.585 C80.824,33.585 79.755,33.182 78.93,32.376 C78.104,31.57 77.692,30.496 77.692,29.156 L77.692,28.923 C77.692,28.023 77.866,27.219 78.213,26.51 C78.561,25.8 79.053,25.254 79.691,24.87 C80.329,24.487 81.056,24.295 81.873,24.295 C83.098,24.295 84.063,24.682 84.767,25.455 C85.47,26.227 85.822,27.323 85.822,28.741 L85.822,29.718 L80.118,29.718 C80.195,30.303 80.428,30.773 80.818,31.126 C81.206,31.479 81.699,31.656 82.295,31.656 C83.217,31.656 83.937,31.322 84.456,30.654 L85.632,31.97 C85.2604101,32.4883233 84.7575195,32.8983673 84.175,33.158 C83.535605,33.4482226 82.840121,33.5940113 82.138,33.585 L82.138,33.585 Z M81.865,26.233 C81.39,26.233 81.005,26.393 80.71,26.713 C80.414,27.033 80.225,27.491 80.142,28.087 L83.471,28.087 L83.471,27.897 C83.46,27.367 83.316,26.957 83.041,26.667 C82.764,26.377 82.372,26.233 81.865,26.233 L81.865,26.233 Z M92.115,26.705 C91.8298026,26.6636046 91.5421679,26.6412219 91.254,26.638 C90.349,26.638 89.755,26.945 89.474,27.558 L89.474,33.419 L87.08,33.419 L87.08,24.461 L89.34,24.461 L89.407,25.529 C89.887,24.706 90.552,24.295 91.402,24.295 C91.667,24.295 91.915,24.331 92.147,24.403 L92.114,26.705 L92.115,26.705 Z M45.978,10.8 L44.686,12.192 L44.686,15.636 L42.202,15.636 L42.202,3.581 L44.686,3.581 L44.686,9.046 L45.779,7.547 L48.851,3.581 L51.906,3.581 L47.626,8.938 L52.03,15.636 L49.074,15.636 L45.978,10.801 L45.978,10.8 Z M55.01,6.678 L55.085,7.713 C55.725,6.913 56.583,6.513 57.66,6.513 C58.61,6.513 59.316,6.791 59.78,7.348 C60.243,7.906 60.48,8.739 60.491,9.848 L60.491,15.636 L58.1,15.636 L58.1,9.906 C58.1,9.399 57.99,9.031 57.768,8.801 C57.548,8.572 57.181,8.458 56.668,8.458 C55.994,8.458 55.488,8.745 55.152,9.318 L55.152,15.636 L52.759,15.636 L52.759,6.678 L55.011,6.678 L55.01,6.678 Z M61.543,11.074 C61.543,10.185 61.713,9.394 62.056,8.698 C62.3774706,8.0249148 62.8919731,7.46272164 63.534,7.083 C64.177,6.703 64.924,6.513 65.774,6.513 C66.982,6.513 67.969,6.882 68.734,7.622 C69.498,8.362 69.924,9.366 70.013,10.635 L70.029,11.248 C70.029,12.622 69.646,13.725 68.879,14.556 C68.111,15.386 67.082,15.802 65.79,15.802 C64.499,15.802 63.468,15.388 62.698,14.56 C61.928,13.732 61.543,12.606 61.543,11.182 L61.543,11.074 Z M63.936,11.248 C63.936,12.098 64.096,12.748 64.416,13.198 C64.736,13.648 65.194,13.873 65.79,13.873 C66.37,13.873 66.822,13.65 67.148,13.206 C67.474,12.762 67.636,12.051 67.636,11.074 C67.636,10.241 67.474,9.594 67.148,9.137 C66.822,8.679 66.364,8.45 65.774,8.45 C65.189,8.45 64.736,8.677 64.416,9.133 C64.096,9.588 63.936,10.293 63.936,11.248 L63.936,11.248 Z M78.71,12.382 L79.886,6.678 L82.196,6.678 L79.911,15.636 L77.907,15.636 L76.21,9.998 L74.512,15.636 L72.517,15.636 L70.232,6.678 L72.542,6.678 L73.709,12.374 L75.349,6.678 L77.079,6.678 L78.71,12.382 L78.71,12.382 Z M85.905,15.636 L83.504,15.636 L83.504,2.92 L85.905,2.92 L85.905,15.637 L85.905,15.636 Z M91.804,15.802 C90.49,15.802 89.421,15.399 88.596,14.592 C87.771,13.787 87.358,12.713 87.358,11.372 L87.358,11.14 C87.358,10.24 87.532,9.436 87.88,8.727 C88.227,8.017 88.72,7.471 89.357,7.087 C89.995,6.704 90.722,6.512 91.539,6.512 C92.764,6.512 93.729,6.899 94.433,7.672 C95.137,8.444 95.488,9.54 95.488,10.958 L95.488,11.935 L89.784,11.935 C89.861,12.52 90.094,12.989 90.484,13.343 C90.873,13.696 91.365,13.873 91.961,13.873 C92.883,13.873 93.603,13.539 94.122,12.871 L95.298,14.187 C94.9264101,14.7053233 94.4235195,15.1153673 93.841,15.375 C93.201605,15.6652226 92.506121,15.8110113 91.804,15.802 L91.804,15.802 Z M91.531,8.45 C91.056,8.45 90.671,8.61 90.376,8.93 C90.081,9.25 89.891,9.708 89.809,10.304 L93.137,10.304 L93.137,10.114 C93.126,9.584 92.982,9.174 92.707,8.884 C92.431,8.594 92.039,8.45 91.531,8.45 L91.531,8.45 Z M96.474,11.09 C96.474,9.694 96.787,8.582 97.414,7.754 C98.04,6.926 98.897,6.512 99.984,6.512 C100.856,6.512 101.577,6.838 102.145,7.489 L102.145,2.92 L104.546,2.92 L104.546,15.637 L102.386,15.637 L102.269,14.685 C101.673,15.43 100.906,15.803 99.968,15.803 C98.913,15.803 98.068,15.387 97.43,14.557 C96.792,13.726 96.474,12.571 96.474,11.092 L96.474,11.09 Z M98.866,11.265 C98.866,12.104 99.013,12.747 99.306,13.194 C99.598,13.641 100.023,13.864 100.58,13.864 C101.32,13.864 101.841,13.552 102.145,12.929 L102.145,9.393 C101.847,8.77 101.331,8.458 100.597,8.458 C99.443,8.458 98.867,9.393 98.867,11.265 L98.866,11.265 Z M105.858,11.091 C105.858,9.716 106.185,8.61 106.839,7.771 C107.494,6.931 108.375,6.512 109.485,6.512 C110.467,6.512 111.232,6.849 111.778,7.522 L111.878,6.678 L114.047,6.678 L114.047,15.338 C114.047,16.122 113.869,16.804 113.513,17.383 C113.155043,17.9644151 112.63171,18.4257701 112.01,18.708 C111.364,19.011 110.608,19.163 109.741,19.163 C109.081099,19.162301 108.428104,19.0286411 107.821,18.77 C107.197,18.508 106.725,18.17 106.405,17.756 L107.465,16.298 C108.061,16.966 108.784,17.3 109.634,17.3 C110.269,17.3 110.763,17.13 111.116,16.791 C111.469,16.451 111.646,15.971 111.646,15.346 L111.646,14.866 C111.094,15.49 110.368,15.802 109.468,15.802 C108.392,15.802 107.521,15.381 106.856,14.539 C106.191,13.697 105.858,12.581 105.858,11.19 L105.858,11.09 L105.858,11.091 Z M108.251,11.265 C108.251,12.076 108.414,12.712 108.74,13.173 C109.065,13.633 109.512,13.864 110.08,13.864 C110.81,13.864 111.331,13.591 111.646,13.044 L111.646,9.279 C111.326,8.732 110.809,8.459 110.097,8.459 C109.523,8.459 109.072,8.693 108.744,9.163 C108.415,9.632 108.251,10.333 108.251,11.266 L108.251,11.265 Z M119.619,15.802 C118.305,15.802 117.236,15.399 116.41,14.592 C115.585,13.787 115.173,12.713 115.173,11.372 L115.173,11.14 C115.173,10.24 115.347,9.436 115.694,8.727 C116.042,8.017 116.534,7.471 117.172,7.087 C117.81,6.704 118.537,6.512 119.354,6.512 C120.579,6.512 121.544,6.899 122.247,7.672 C122.951,8.444 123.303,9.54 123.303,10.958 L123.303,11.935 L117.599,11.935 C117.676,12.52 117.909,12.989 118.299,13.343 C118.687,13.696 119.179,13.873 119.776,13.873 C120.698,13.873 121.418,13.539 121.936,12.871 L123.113,14.187 C122.741135,14.7054614 122.237885,15.1155174 121.655,15.375 C121.015911,15.6650788 120.320785,15.8108642 119.619,15.802 L119.619,15.802 Z M119.345,8.45 C118.871,8.45 118.485,8.61 118.19,8.93 C117.895,9.25 117.706,9.708 117.623,10.304 L120.952,10.304 L120.952,10.114 C120.941,9.584 120.797,9.174 120.522,8.884 C120.245,8.594 119.853,8.45 119.345,8.45 L119.345,8.45 Z" id="Shape"></path>
                </g>
            </g>
        </g>
    </g>
</svg>