<?xml version="1.0" encoding="UTF-8"?>
<svg width="93" height="20" viewBox="0 0 93 20" fill="none" xmlns="http://www.w3.org/2000/svg">
  <path fill-rule="evenodd" clip-rule="evenodd"
    d="M5.57883 20H9.98217C10.1997 19.9819 10.3445 19.8384 10.3262 19.6409V3.12371C10.3286 2.80735 10.5868 2.55147 10.9061 2.54914H11.2323C11.4159 2.55388 11.5825 2.65704 11.6673 2.81854L15.0014 9.65905C15.0241 9.71625 15.0365 9.77694 15.038 9.83836C15.021 10.0333 14.8548 10.1822 14.6574 10.1793H11.8665C11.6667 10.1799 11.5048 10.3403 11.5042 10.5384V12.3698C11.5048 12.5679 11.6667 12.7283 11.8665 12.7289H16.9223C17.0738 12.7272 17.2152 12.6538 17.3029 12.5315L18.209 11.1849C18.3525 10.9847 18.3734 10.7226 18.2634 10.5026L13.298 0.323281C13.1997 0.124795 12.9957 -0.000706177 12.7726 2.98974e-06H8.11565C7.91579 0.000621323 7.75393 0.161014 7.75331 0.359057V17.0556C7.75579 17.1564 7.71649 17.2537 7.64457 17.325C7.57264 17.3963 7.47439 17.4352 7.3727 17.4328H6.73849C6.58206 17.4328 6.43728 17.3508 6.35788 17.2172L3.8937 13.1776C3.85662 13.1184 3.83773 13.0498 3.83933 12.9802C3.85597 12.7852 4.02206 12.6362 4.21951 12.6392H6.21304C6.41226 12.6392 6.59365 12.4776 6.59365 12.2802V10.4668C6.59295 10.2686 6.43087 10.1082 6.23087 10.1078H1.12112C0.991796 10.1093 0.868184 10.1608 0.776613 10.2513L0.178946 10.844C-0.0201009 11.0532 -0.0570571 11.367 0.0880341 11.6159L5.0351 19.6948C5.15271 19.881 5.35721 19.9958 5.57883 20ZM22.8963 5.90047H26.1216V17.93C26.1299 18.1493 26.3028 18.325 26.5182 18.3333H28.4818C28.6973 18.325 28.8701 18.1493 28.8785 17.93V5.90047H32.1038C32.2095 5.90259 32.3114 5.86079 32.3862 5.7847C32.461 5.7086 32.502 5.60479 32.5 5.49719V3.73661C32.4981 3.51466 32.3218 3.33518 32.1038 3.33326H22.8963C22.7906 3.33114 22.6885 3.37292 22.6138 3.44903C22.539 3.52514 22.4979 3.629 22.5 3.73661V5.49719C22.5019 5.71915 22.6782 5.89862 22.8963 5.90047ZM35 3.73663C34.9979 3.62894 35.0382 3.52503 35.1114 3.44891C35.1846 3.37279 35.2846 3.33105 35.3881 3.33326H43.7785C43.992 3.33501 44.1647 3.51452 44.1666 3.73663V5.49719C44.1686 5.60486 44.1283 5.70873 44.0551 5.78483C43.9819 5.86093 43.882 5.90269 43.7785 5.90046H37.6794V9.42116H42.774C42.9847 9.42943 43.1536 9.60523 43.1616 9.82443V11.6035C43.1598 11.8254 42.9873 12.0049 42.774 12.0068H37.6794V15.7661H43.7785C43.992 15.7677 44.1647 15.9472 44.1666 16.1693V17.9299C44.1686 18.0376 44.1283 18.1414 44.0551 18.2175C43.9819 18.2936 43.882 18.3354 43.7785 18.3333H35.3881C35.1746 18.3315 35.0019 18.152 35 17.9299V3.73663ZM49.5874 3.33348C49.3932 3.32375 49.2253 3.4646 49.2054 3.65386L46.6777 17.6388C46.6231 17.9238 46.8047 18.1194 47.0776 18.1194H48.9871C49.1692 18.1194 49.3512 17.9413 49.3691 17.799L50.6059 9.91673H50.6788L54.4434 18.1015C54.5163 18.2262 54.6071 18.333 54.8071 18.333H55.1891C55.389 18.333 55.5165 18.2262 55.5527 18.1015L59.2811 9.91673H59.354L60.6087 17.799C60.6541 17.9813 60.8174 18.112 61.009 18.1194H62.9365C63.2093 18.1194 63.3914 17.9238 63.3185 17.6388L60.8086 3.65386C60.7907 3.47573 60.6632 3.33348 60.4271 3.33348H60.0813C59.8813 3.33348 59.7905 3.42276 59.7176 3.54707L55.0437 13.3688H54.9708L50.2968 3.54707C50.2249 3.41594 50.0853 3.33395 49.9332 3.33348H49.5874ZM65.8321 3.73594C65.83 3.62846 65.8708 3.52473 65.945 3.44871C66.0193 3.37269 66.1206 3.33096 66.2255 3.33308H71.145C73.7211 3.33308 75.8321 5.47588 75.8321 8.07678C75.8321 10.7322 73.7211 12.8934 71.163 12.8934H68.5513V17.9299C68.543 18.149 68.3715 18.3246 68.1575 18.3331H66.2255C66.009 18.331 65.8339 18.1516 65.8321 17.9299V3.73594ZM72.6494 9.36512C72.2073 9.77136 71.6055 9.9998 70.9777 9.99967H68.332V5.833H70.9777C72.262 5.833 73.3319 6.70184 73.3319 7.83631C73.3372 8.40849 73.0914 8.95887 72.6494 9.36512ZM84.9912 3.33318C89.1647 3.33318 92.5 6.6821 92.5 10.8509C92.5 15.0198 89.1647 18.3332 84.9912 18.3332C80.8177 18.3332 77.5 15.0193 77.5 10.8509C77.5 6.68253 80.8177 3.33318 84.9912 3.33318ZM90 10.8517C90 13.5841 87.7283 15.8332 84.9908 15.8332C82.2533 15.8332 80 13.5841 80 10.8517C80 8.11932 82.2533 5.83318 84.9908 5.83318C87.7283 5.83318 90 8.11932 90 10.8517Z"
    fill="#20242D"></path>
</svg>